<svg width="40" height="40" viewBox="0 0 40 40" fill="none" xmlns="http://www.w3.org/2000/svg">
<path d="M15.79 8.68165C15.79 8.68165 8.28833 16.19 5.36667 19.1133C5.12167 19.3567 5 19.6767 5 19.9967C5 20.3167 5.12167 20.6367 5.36667 20.88C8.28667 23.8033 15.7867 31.3083 15.7867 31.3083C16.0283 31.55 16.3467 31.67 16.665 31.67C16.9833 31.6683 17.3033 31.5467 17.5483 31.3017C18.0367 30.8133 18.0383 30.025 17.555 29.54L9.26167 21.2467H33.7483C34.4383 21.2467 34.9983 20.6867 34.9983 19.9967C34.9983 19.3067 34.4383 18.7467 33.7483 18.7467H9.26167L17.5583 10.4483C18.04 9.96665 18.0367 9.17999 17.5483 8.69165C17.3033 8.44665 16.9833 8.32332 16.665 8.32332C16.3467 8.32165 16.0317 8.44165 15.79 8.68165Z" fill="black"/>
</svg>
