<svg width="166" height="25" viewBox="0 0 166 25" fill="none" xmlns="http://www.w3.org/2000/svg">
<path d="M0.376 15.2C0.376 13.3867 0.738667 11.808 1.464 10.464C2.18933 9.09867 3.192 8.04267 4.472 7.296C5.77333 6.54933 7.256 6.176 8.92 6.176C11.0747 6.176 12.8453 6.69867 14.232 7.744C15.64 8.78933 16.568 10.24 17.016 12.096H13.88C13.5813 11.0293 12.9947 10.1867 12.12 9.568C11.2667 8.94933 10.2 8.64 8.92 8.64C7.256 8.64 5.912 9.216 4.888 10.368C3.864 11.4987 3.352 13.1093 3.352 15.2C3.352 17.312 3.864 18.944 4.888 20.096C5.912 21.248 7.256 21.824 8.92 21.824C10.2 21.824 11.2667 21.5253 12.12 20.928C12.9733 20.3307 13.56 19.4773 13.88 18.368H17.016C16.5467 20.16 15.608 21.6 14.2 22.688C12.792 23.7547 11.032 24.288 8.92 24.288C7.256 24.288 5.77333 23.9147 4.472 23.168C3.192 22.4213 2.18933 21.3653 1.464 20C0.738667 18.6347 0.376 17.0347 0.376 15.2ZM19.8135 15.168C19.8135 13.376 20.1762 11.808 20.9015 10.464C21.6268 9.09867 22.6188 8.04267 23.8775 7.296C25.1575 6.54933 26.5762 6.176 28.1335 6.176C29.6695 6.176 31.0028 6.50667 32.1335 7.168C33.2642 7.82933 34.1068 8.66133 34.6615 9.664V6.464H37.6055V24H34.6615V20.736C34.0855 21.76 33.2215 22.6133 32.0695 23.296C30.9388 23.9573 29.6162 24.288 28.1015 24.288C26.5442 24.288 25.1362 23.904 23.8775 23.136C22.6188 22.368 21.6268 21.2907 20.9015 19.904C20.1762 18.5173 19.8135 16.9387 19.8135 15.168ZM34.6615 15.2C34.6615 13.8773 34.3948 12.7253 33.8615 11.744C33.3282 10.7627 32.6028 10.016 31.6855 9.504C30.7895 8.97067 29.7975 8.704 28.7095 8.704C27.6215 8.704 26.6295 8.96 25.7335 9.472C24.8375 9.984 24.1228 10.7307 23.5895 11.712C23.0562 12.6933 22.7895 13.8453 22.7895 15.168C22.7895 16.512 23.0562 17.6853 23.5895 18.688C24.1228 19.6693 24.8375 20.4267 25.7335 20.96C26.6295 21.472 27.6215 21.728 28.7095 21.728C29.7975 21.728 30.7895 21.472 31.6855 20.96C32.6028 20.4267 33.3282 19.6693 33.8615 18.688C34.3948 17.6853 34.6615 16.5227 34.6615 15.2ZM45.4385 0.32V24H42.5265V0.32H45.4385ZM58.0495 24.288C56.4068 24.288 54.9135 23.9147 53.5695 23.168C52.2468 22.4213 51.2015 21.3653 50.4335 20C49.6868 18.6133 49.3135 17.0133 49.3135 15.2C49.3135 13.408 49.6975 11.8293 50.4655 10.464C51.2548 9.07733 52.3215 8.02133 53.6655 7.296C55.0095 6.54933 56.5135 6.176 58.1775 6.176C59.8415 6.176 61.3455 6.54933 62.6895 7.296C64.0335 8.02133 65.0895 9.06667 65.8575 10.432C66.6468 11.7973 67.0415 13.3867 67.0415 15.2C67.0415 17.0133 66.6362 18.6133 65.8255 20C65.0362 21.3653 63.9588 22.4213 62.5935 23.168C61.2282 23.9147 59.7135 24.288 58.0495 24.288ZM58.0495 21.728C59.0948 21.728 60.0762 21.4827 60.9935 20.992C61.9108 20.5013 62.6468 19.7653 63.2015 18.784C63.7775 17.8027 64.0655 16.608 64.0655 15.2C64.0655 13.792 63.7882 12.5973 63.2335 11.616C62.6788 10.6347 61.9535 9.90933 61.0575 9.44C60.1615 8.94933 59.1908 8.704 58.1455 8.704C57.0788 8.704 56.0975 8.94933 55.2015 9.44C54.3268 9.90933 53.6228 10.6347 53.0895 11.616C52.5562 12.5973 52.2895 13.792 52.2895 15.2C52.2895 16.6293 52.5455 17.8347 53.0575 18.816C53.5908 19.7973 54.2948 20.5333 55.1695 21.024C56.0442 21.4933 57.0042 21.728 58.0495 21.728Z" fill="#2196F3"/>
<path d="M92.6303 6.016C94.8063 6.016 96.5556 6.688 97.8783 8.032C99.2223 9.35467 99.8943 11.2107 99.8943 13.6V24H95.4143V14.208C95.4143 12.8213 95.0623 11.7653 94.3583 11.04C93.6543 10.2933 92.6943 9.92 91.4783 9.92C90.2623 9.92 89.2916 10.2933 88.5663 11.04C87.8623 11.7653 87.5103 12.8213 87.5103 14.208V24H83.0303V14.208C83.0303 12.8213 82.6783 11.7653 81.9743 11.04C81.2703 10.2933 80.3103 9.92 79.0943 9.92C77.8569 9.92 76.8756 10.2933 76.1503 11.04C75.4463 11.7653 75.0943 12.8213 75.0943 14.208V24H70.6143V6.272H75.0943V8.416C75.6703 7.66933 76.4063 7.08267 77.3023 6.656C78.2196 6.22933 79.2223 6.016 80.3103 6.016C81.6969 6.016 82.9343 6.31467 84.0223 6.912C85.1103 7.488 85.9529 8.32 86.5503 9.408C87.1263 8.384 87.9583 7.56267 89.0463 6.944C90.1556 6.32533 91.3503 6.016 92.6303 6.016ZM120.626 14.752C120.626 15.392 120.583 15.968 120.498 16.48H107.538C107.644 17.76 108.092 18.7627 108.882 19.488C109.671 20.2133 110.642 20.576 111.794 20.576C113.458 20.576 114.642 19.8613 115.346 18.432H120.178C119.666 20.1387 118.684 21.5467 117.234 22.656C115.783 23.744 114.002 24.288 111.89 24.288C110.183 24.288 108.647 23.9147 107.282 23.168C105.938 22.4 104.882 21.3227 104.114 19.936C103.367 18.5493 102.993 16.9493 102.993 15.136C102.993 13.3013 103.367 11.6907 104.114 10.304C104.86 8.91733 105.906 7.85067 107.25 7.104C108.594 6.35733 110.14 5.984 111.89 5.984C113.575 5.984 115.079 6.34667 116.402 7.072C117.746 7.79733 118.78 8.832 119.506 10.176C120.252 11.4987 120.626 13.024 120.626 14.752ZM115.986 13.472C115.964 12.32 115.548 11.4027 114.738 10.72C113.927 10.016 112.935 9.664 111.762 9.664C110.652 9.664 109.714 10.0053 108.946 10.688C108.199 11.3493 107.74 12.2773 107.57 13.472H115.986ZM129.112 9.952V18.528C129.112 19.1253 129.25 19.5627 129.528 19.84C129.826 20.096 130.317 20.224 131 20.224H133.08V24H130.264C126.488 24 124.6 22.1653 124.6 18.496V9.952H122.488V6.272H124.6V1.888H129.112V6.272H133.08V9.952H129.112ZM152.782 14.752C152.782 15.392 152.739 15.968 152.654 16.48H139.694C139.8 17.76 140.248 18.7627 141.038 19.488C141.827 20.2133 142.798 20.576 143.95 20.576C145.614 20.576 146.798 19.8613 147.502 18.432H152.334C151.822 20.1387 150.84 21.5467 149.39 22.656C147.939 23.744 146.158 24.288 144.046 24.288C142.339 24.288 140.803 23.9147 139.438 23.168C138.094 22.4 137.038 21.3227 136.27 19.936C135.523 18.5493 135.15 16.9493 135.15 15.136C135.15 13.3013 135.523 11.6907 136.27 10.304C137.016 8.91733 138.062 7.85067 139.406 7.104C140.75 6.35733 142.296 5.984 144.046 5.984C145.731 5.984 147.235 6.34667 148.558 7.072C149.902 7.79733 150.936 8.832 151.662 10.176C152.408 11.4987 152.782 13.024 152.782 14.752ZM148.142 13.472C148.12 12.32 147.704 11.4027 146.894 10.72C146.083 10.016 145.091 9.664 143.918 9.664C142.808 9.664 141.87 10.0053 141.102 10.688C140.355 11.3493 139.896 12.2773 139.726 13.472H148.142ZM160.532 9.024C161.108 8.08533 161.854 7.34933 162.772 6.816C163.71 6.28267 164.777 6.016 165.972 6.016V10.72H164.788C163.38 10.72 162.313 11.0507 161.588 11.712C160.884 12.3733 160.532 13.5253 160.532 15.168V24H156.052V6.272H160.532V9.024Z" fill="black"/>
</svg>
