<svg width="571" height="480" viewBox="0 0 571 480" fill="none" xmlns="http://www.w3.org/2000/svg">
<g clip-path="url(#clip0_11_158)">
<path d="M437.46 454.652L467.188 397.388L437.521 460.812L437.583 467.256C435.413 467.277 433.264 467.23 431.136 467.115L432.61 384.287L432.57 383.648L432.624 383.525L432.765 375.698L400.21 314.473L432.727 369.84L432.842 371.494L433.956 308.914L405.837 245.438L434.036 297.921L433.742 168.271L433.742 167.84L433.752 168.264L435.618 270.446L461.245 228.939L435.702 279.248L436.262 335.225L459.844 280.594L436.348 343.454L436.66 374.58L470.954 298.48L436.764 385.438L437.46 454.652Z" fill="#E6E6E6"/>
<path d="M537.506 456.456L567.233 399.192L537.567 462.616L537.629 469.06C535.458 469.081 533.309 469.034 531.181 468.919L532.656 386.091L532.615 385.452L532.67 385.328L532.811 377.502L500.255 316.276L532.772 371.644L532.888 373.298L534.001 310.718L505.882 247.242L534.081 299.725L533.787 170.075L533.788 169.644L533.797 170.068L535.664 272.249L561.291 230.743L535.748 281.052L536.307 337.028L559.889 282.398L536.394 345.258L536.705 376.383L571 300.284L536.809 387.242L537.506 456.456Z" fill="#E6E6E6"/>
<path d="M236.762 0H58.8693V311.683H236.762V0Z" fill="#E6E6E6"/>
<path d="M230.493 10.9832H65.1379V300.7H230.493V10.9832Z" fill="white"/>
<path d="M208.759 61.7987H87.4025C86.4195 61.797 85.4772 61.2901 84.7825 60.3891C84.0879 59.4881 83.6978 58.2669 83.6978 56.9936C83.6978 55.7203 84.0879 54.499 84.7825 53.5981C85.4772 52.6971 86.4195 52.1902 87.4025 52.1885H208.759C209.246 52.1877 209.729 52.3113 210.18 52.5524C210.63 52.7935 211.04 53.1474 211.385 53.5936C211.73 54.0399 212.004 54.5699 212.19 55.1533C212.377 55.7367 212.473 56.362 212.473 56.9936C212.473 57.6251 212.377 58.2505 212.19 58.8339C212.004 59.4173 211.73 59.9473 211.385 60.3936C211.04 60.8398 210.63 61.1937 210.18 61.4348C209.729 61.6759 209.246 61.7995 208.759 61.7987Z" fill="#E6E6E6"/>
<path d="M208.759 111.223H87.4025C86.4195 111.221 85.4772 110.714 84.7825 109.813C84.0879 108.912 83.6978 107.691 83.6978 106.418C83.6978 105.144 84.0879 103.923 84.7825 103.022C85.4772 102.121 86.4195 101.614 87.4025 101.613H208.759C209.246 101.612 209.729 101.735 210.18 101.976C210.63 102.218 211.04 102.571 211.385 103.018C211.73 103.464 212.004 103.994 212.19 104.577C212.377 105.161 212.473 105.786 212.473 106.418C212.473 107.049 212.377 107.675 212.19 108.258C212.004 108.841 211.73 109.371 211.385 109.818C211.04 110.264 210.63 110.618 210.18 110.859C209.729 111.1 209.246 111.224 208.759 111.223Z" fill="#E6E6E6"/>
<path d="M208.759 160.647H87.4025C86.4195 160.645 85.4772 160.138 84.7825 159.237C84.0879 158.336 83.6978 157.115 83.6978 155.842C83.6978 154.568 84.0879 153.347 84.7825 152.446C85.4772 151.545 86.4195 151.038 87.4025 151.037H208.759C209.246 151.036 209.729 151.159 210.18 151.401C210.63 151.642 211.04 151.995 211.385 152.442C211.73 152.888 212.004 153.418 212.19 154.001C212.377 154.585 212.473 155.21 212.473 155.842C212.473 156.473 212.377 157.099 212.19 157.682C212.004 158.265 211.73 158.795 211.385 159.242C211.04 159.688 210.63 160.042 210.18 160.283C209.729 160.524 209.246 160.648 208.759 160.647Z" fill="#E6E6E6"/>
<path d="M208.759 210.071H87.4025C86.4195 210.069 85.4772 209.562 84.7825 208.661C84.0879 207.76 83.6978 206.539 83.6978 205.266C83.6978 203.993 84.0879 202.771 84.7825 201.87C85.4772 200.969 86.4195 200.462 87.4025 200.461H208.759C209.246 200.46 209.729 200.584 210.18 200.825C210.63 201.066 211.04 201.42 211.385 201.866C211.73 202.312 212.004 202.842 212.19 203.426C212.377 204.009 212.473 204.634 212.473 205.266C212.473 205.897 212.377 206.523 212.19 207.106C212.004 207.69 211.73 208.22 211.385 208.666C211.04 209.112 210.63 209.466 210.18 209.707C209.729 209.948 209.246 210.072 208.759 210.071Z" fill="#E6E6E6"/>
<path d="M208.759 259.495H87.4025C86.4195 259.493 85.4772 258.986 84.7825 258.085C84.0879 257.184 83.6978 255.963 83.6978 254.69C83.6978 253.417 84.0879 252.195 84.7825 251.294C85.4772 250.393 86.4195 249.886 87.4025 249.885H208.759C209.246 249.884 209.729 250.008 210.18 250.249C210.63 250.49 211.04 250.844 211.385 251.29C211.73 251.736 212.004 252.266 212.19 252.85C212.377 253.433 212.473 254.058 212.473 254.69C212.473 255.321 212.377 255.947 212.19 256.53C212.004 257.114 211.73 257.644 211.385 258.09C211.04 258.536 210.63 258.89 210.18 259.131C209.729 259.372 209.246 259.496 208.759 259.495Z" fill="#E6E6E6"/>
<path d="M187.561 61.7987H86.8725C86.385 61.7995 85.9021 61.6759 85.4515 61.4348C85.0008 61.1937 84.5913 60.8398 84.2463 60.3936C83.9013 59.9473 83.6276 59.4173 83.4409 58.8339C83.2542 58.2505 83.1581 57.6251 83.1581 56.9936C83.1581 56.362 83.2542 55.7367 83.4409 55.1533C83.6276 54.5699 83.9013 54.0399 84.2463 53.5936C84.5913 53.1474 85.0008 52.7935 85.4515 52.5524C85.9021 52.3113 86.385 52.1877 86.8725 52.1885H187.561C188.544 52.1902 189.486 52.6971 190.181 53.5981C190.876 54.499 191.266 55.7203 191.266 56.9936C191.266 58.2669 190.876 59.4881 190.181 60.3891C189.486 61.2901 188.544 61.797 187.561 61.7987Z" fill="#2196F3"/>
<path d="M156.295 111.223H86.8725C85.8887 111.223 84.9451 110.717 84.2495 109.815C83.5538 108.914 83.163 107.692 83.163 106.418C83.163 105.143 83.5538 103.921 84.2495 103.02C84.9451 102.119 85.8887 101.613 86.8725 101.613H156.295C156.782 101.612 157.265 101.735 157.716 101.976C158.166 102.218 158.576 102.571 158.921 103.018C159.266 103.464 159.54 103.994 159.726 104.577C159.913 105.161 160.009 105.786 160.009 106.418C160.009 107.049 159.913 107.675 159.726 108.258C159.54 108.841 159.266 109.371 158.921 109.818C158.576 110.264 158.166 110.618 157.716 110.859C157.265 111.1 156.782 111.224 156.295 111.223Z" fill="#2196F3"/>
<path d="M118.139 160.647H86.8725C86.385 160.648 85.9021 160.524 85.4515 160.283C85.0008 160.042 84.5913 159.688 84.2463 159.242C83.9013 158.795 83.6276 158.265 83.4409 157.682C83.2542 157.099 83.1581 156.473 83.1581 155.842C83.1581 155.21 83.2542 154.585 83.4409 154.001C83.6276 153.418 83.9013 152.888 84.2463 152.442C84.5913 151.995 85.0008 151.642 85.4515 151.401C85.9021 151.159 86.385 151.036 86.8725 151.037H118.139C119.122 151.038 120.064 151.545 120.759 152.446C121.454 153.347 121.844 154.568 121.844 155.842C121.844 157.115 121.454 158.336 120.759 159.237C120.064 160.138 119.122 160.645 118.139 160.647Z" fill="#2196F3"/>
<path d="M197.1 210.071H86.8725C85.8887 210.071 84.9451 209.565 84.2495 208.664C83.5538 207.762 83.163 206.54 83.163 205.266C83.163 203.991 83.5538 202.769 84.2495 201.868C84.9451 200.967 85.8887 200.461 86.8725 200.461H197.1C198.084 200.461 199.027 200.967 199.723 201.868C200.419 202.769 200.81 203.991 200.81 205.266C200.81 206.54 200.419 207.762 199.723 208.664C199.027 209.565 198.084 210.071 197.1 210.071Z" fill="#2196F3"/>
<path d="M172.723 259.495H86.8725C86.385 259.496 85.9021 259.372 85.4515 259.131C85.0008 258.89 84.5913 258.536 84.2463 258.09C83.9013 257.644 83.6276 257.114 83.4409 256.53C83.2542 255.947 83.1581 255.321 83.1581 254.69C83.1581 254.058 83.2542 253.433 83.4409 252.85C83.6276 252.266 83.9013 251.736 84.2463 251.29C84.5913 250.844 85.0008 250.49 85.4515 250.249C85.9021 250.008 86.385 249.884 86.8725 249.885H172.723C173.21 249.884 173.693 250.008 174.144 250.249C174.595 250.49 175.004 250.844 175.349 251.29C175.694 251.736 175.968 252.266 176.154 252.85C176.341 253.433 176.437 254.058 176.437 254.69C176.437 255.321 176.341 255.947 176.154 256.53C175.968 257.114 175.694 257.644 175.349 258.09C175.004 258.536 174.595 258.89 174.144 259.131C173.693 259.372 173.21 259.496 172.723 259.495Z" fill="#2196F3"/>
<path d="M568.217 467.261H0V468.919H568.217V467.261Z" fill="#3F3D56"/>
<path d="M323.773 224.544C323.773 224.544 319.751 186.339 313.048 196.759C306.345 207.178 313.048 222.807 313.048 222.807L318.411 231.49L323.773 226.281V224.544Z" fill="#9F616A"/>
<path d="M339.861 236.7C339.861 236.7 326.455 217.598 323.773 221.071C321.092 224.544 313.048 226.281 314.389 233.227C315.729 240.173 343.883 262.749 343.883 262.749L339.861 236.7Z" fill="#2196F3"/>
<path opacity="0.1" d="M339.861 236.7C339.861 236.7 326.455 217.598 323.773 221.071C321.092 224.544 313.048 226.281 314.389 233.227C315.729 240.173 343.883 262.749 343.883 262.749L339.861 236.7Z" fill="black"/>
<path d="M416.279 234.964V248.856C416.279 248.856 417.62 280.115 409.576 278.378C401.532 276.642 405.554 250.593 405.554 250.593L406.894 234.964L416.279 234.964Z" fill="#9F616A"/>
<path d="M412.257 335.686C412.257 335.686 424.323 359.998 428.345 361.735C432.367 363.471 453.817 379.1 456.499 394.73L475.268 425.988L465.883 441.618C465.883 441.618 422.982 382.574 410.916 377.364C398.85 372.154 386.784 346.105 386.784 346.105L412.257 335.686Z" fill="#9F616A"/>
<path d="M317.07 295.744C317.07 295.744 291.598 300.954 295.62 321.793C299.642 342.632 338.521 386.047 338.521 386.047L339.861 396.466L354.609 399.94L361.312 391.257L359.971 386.047C359.971 386.047 343.883 366.944 342.543 359.998C341.202 353.052 326.455 325.266 319.751 323.53L329.136 316.583L317.07 295.744Z" fill="#9F616A"/>
<path d="M471.246 425.988C471.246 425.988 465.883 415.569 473.927 417.305C481.971 419.042 487.334 420.779 487.334 427.725C487.334 434.671 480.63 483.296 472.586 479.823C464.542 476.35 471.246 460.72 471.246 460.72C471.246 460.72 467.224 446.828 464.542 445.091C461.861 443.354 461.861 434.671 464.542 434.671C467.224 434.671 472.586 429.462 471.246 425.988Z" fill="#2F2E41"/>
<path d="M357.29 387.783C357.29 387.783 357.29 379.1 362.652 387.783C368.015 396.466 370.696 403.413 365.334 408.622C359.971 413.832 341.202 425.988 341.202 425.988C341.202 425.988 321.092 431.198 323.773 419.042C323.773 419.042 337.18 410.359 337.18 403.413C337.18 396.466 337.18 384.31 341.202 387.783C345.224 391.257 357.29 392.993 357.29 387.783Z" fill="#2F2E41"/>
<path d="M382.762 257.539C382.762 257.539 401.532 261.012 400.191 295.744C400.191 295.744 424.323 327.003 417.619 337.422C410.916 347.842 396.169 366.944 390.806 361.734C385.444 356.525 369.356 316.583 369.356 316.583C369.356 316.583 331.817 333.949 325.114 325.266C318.411 316.583 311.708 295.744 311.708 295.744L345.224 273.168L382.762 257.539Z" fill="#2F2E41"/>
<path d="M330.477 158.553C339.362 158.553 346.565 149.224 346.565 137.714C346.565 126.205 339.362 116.875 330.477 116.875C321.592 116.875 314.389 126.205 314.389 137.714C314.389 149.224 321.592 158.553 330.477 158.553Z" fill="#9F616A"/>
<path d="M342.543 139.451C342.543 139.451 351.927 158.553 354.609 160.29C357.29 162.027 335.839 179.393 335.839 179.393C335.839 179.393 335.839 156.817 329.136 151.607L342.543 139.451Z" fill="#9F616A"/>
<path d="M343.883 158.553C343.883 158.553 365.334 149.871 369.356 163.763C373.378 177.656 382.762 203.705 381.422 221.071C380.081 238.437 377.4 234.963 381.422 240.173C385.444 245.383 388.125 241.91 386.784 248.856C385.444 255.803 384.103 255.803 385.444 259.276C386.784 262.749 369.356 274.905 354.609 276.642L339.861 278.378C339.861 278.378 339.861 247.12 337.18 240.173C334.499 233.227 329.136 219.334 329.136 214.124V200.34C329.136 191.165 330.984 182.149 334.499 174.183C334.499 174.183 342.543 158.553 343.883 158.553Z" fill="#2196F3"/>
<path d="M359.971 165.5C359.971 165.5 409.576 170.71 414.938 188.076C420.301 205.441 422.982 240.173 417.619 240.173C412.257 240.173 405.554 243.646 404.213 240.173C402.872 236.7 397.51 201.968 396.169 201.968C394.828 201.968 354.609 196.758 354.609 196.758C354.609 196.758 337.18 168.973 359.971 165.5Z" fill="#2196F3"/>
<path d="M329.83 132.548C329.83 132.548 325.561 122.938 320.225 131.285C314.888 139.633 306.207 124.293 307.539 121.02C308.872 117.746 313.578 121.167 321.644 117.752C329.709 114.336 345.246 107.379 347.848 130.074C350.45 152.77 344.253 150.391 344.253 150.391C344.253 150.391 341.412 130.28 338.845 136.057L336.277 141.833L334.051 142.543L329.83 132.548Z" fill="#2F2E41"/>
</g>
<defs>
<clipPath id="clip0_11_158">
<rect width="571" height="480" fill="white"/>
</clipPath>
</defs>
</svg>
