<svg width="466" height="471" viewBox="0 0 466 471" fill="none" xmlns="http://www.w3.org/2000/svg">
<g clip-path="url(#clip0_9_76)">
<path d="M268.364 161.138C268.364 161.138 268.173 170.297 253.046 183.675L249.62 190.474L281.586 210.884C284.465 211.032 287.7 211.87 290.923 213.456C299.279 217.563 304.38 225.066 302.311 230.223C300.241 235.38 291.789 236.233 283.427 232.125C281.599 231.231 279.924 230.167 278.452 229.004C267.498 225.968 218.756 211.448 224.15 194.92C230.22 176.32 236.162 154.572 236.162 154.572L268.37 161.138H268.364Z" fill="#FFB6B6"/>
<path d="M241.837 127.582C243.754 120.593 248.365 115.006 254.486 112.251C260.606 109.504 267.428 109.954 273.217 113.477C278.828 116.901 282.777 122.847 284.051 129.787C285.324 136.733 283.783 143.905 279.828 149.478L266.491 168.246L232.844 160.342L241.837 127.582Z" fill="#2196F3"/>
<path d="M311.265 197.04C301.553 193.201 291.375 191.312 280.764 191.2C279.656 190.988 278.599 191.813 278.408 193.039L277.255 200.394C277.064 201.62 277.809 202.789 278.917 203C283.057 205.72 287.267 207.368 291.534 208.291L287.114 236.543C282.146 235.472 277.586 235.218 273.707 236.324C272.599 236.113 271.542 236.937 271.351 238.163L270.198 245.518C270.007 246.744 270.752 247.914 271.86 248.125C280.51 251.57 291.037 253.169 302.355 253.965C303.463 254.177 304.521 253.353 304.712 252.127L305.864 244.771C306.056 243.546 305.31 242.376 304.202 242.165C299.833 240.411 295.547 238.818 291.464 237.642L295.948 209.01C300.4 209.489 304.896 209.313 309.418 208.841C310.527 209.052 311.584 208.228 311.775 207.002L312.928 199.647C313.119 198.421 312.374 197.252 311.265 197.04Z" fill="#2F2E41"/>
<path d="M175.485 440.149L145.678 406.431L167.218 372.388L173.058 372.811C176.16 373.036 178.841 370.444 179.058 367.013L180.153 349.597C180.383 345.99 177.797 342.918 174.523 342.918H119.775C120.221 341.742 120.336 340.424 120.075 339.149L87.4144 179.251C86.7839 176.165 84.1662 174.087 81.3193 174.418L68.4157 175.919C65.0592 176.313 62.76 179.857 63.4988 183.499L98.4901 355.473C99.2798 359.348 102.897 361.158 105.897 359.982C105.732 360.496 105.636 361.01 105.598 361.532L100.955 361.94L21.9794 459.164H46.1816L107.324 383.78L165.919 459.164H185.026L185.662 446.483L175.472 440.142H175.485V440.149ZM118.196 368.838L150.251 371.162L137.698 397.399L119.444 376.749L118.202 368.838H118.196Z" fill="#F2F2F2"/>
<path d="M0 459.375C0 459.84 0.337557 460.214 0.75791 460.214H465.242C465.662 460.214 466 459.84 466 459.375C466 458.91 465.662 458.537 465.242 458.537H0.75791C0.337557 458.537 0 458.91 0 459.375Z" fill="#3F3D56"/>
<path d="M277.529 73.2983C291.951 73.2983 303.642 60.3659 303.642 44.413C303.642 28.46 291.951 15.5276 277.529 15.5276C263.107 15.5276 251.416 28.46 251.416 44.413C251.416 60.3659 263.107 73.2983 277.529 73.2983Z" fill="#FFB6B6"/>
<path d="M227.711 412.673V441.558L207.967 442.263L208.788 412.673H227.711Z" fill="#FFB6B6"/>
<path d="M221.921 437.873L221.851 437.993L221.724 438.021C221.246 438.141 210.017 440.832 206.744 435.767C206.483 435.365 206.26 435.203 206.069 435.267C203.929 436.028 202.228 454.077 202.228 460.925C202.228 464.962 210.368 466.005 220.679 467.315C225.494 467.928 230.952 468.626 236.36 469.732C248.117 472.141 257.804 466.181 262.536 462.412C263.371 461.743 263.886 460.707 263.944 459.573C264.001 458.431 263.593 457.332 262.823 456.564C256.588 450.351 235.958 429.976 232.398 428.856C232.143 428.778 231.882 428.736 231.615 428.736C227.481 428.736 221.978 437.775 221.921 437.866V437.873Z" fill="#2F2E41"/>
<path d="M264.651 412.673V441.558L244.907 442.263L245.728 412.673H264.651Z" fill="#FFB6B6"/>
<path d="M272.612 205.896L283.121 214.703L285.031 314.04L267.198 422.536L243.951 423.593L243.315 320.028L213.38 225.623L219.431 203.43L272.612 205.896Z" fill="#2F2E41"/>
<path d="M223.571 222.805L213.38 225.623L206.056 422.536L232.487 420.07L250.002 280.927L223.571 222.805Z" fill="#2F2E41"/>
<path d="M273.192 470.436C267.803 469.33 262.358 468.64 257.556 468.027C246.518 466.618 238.544 465.596 238.544 460.932C238.544 457.396 239.78 435.682 242.824 434.604C243.162 434.485 243.671 434.527 244.213 435.365C247.066 439.783 257.173 437.648 258.409 437.366C259.173 436.126 265.097 426.784 269.517 428.186C272.924 429.264 289.802 445.715 299.565 455.423C300.648 456.501 301.215 458.044 301.12 459.65C301.024 461.242 300.292 462.68 299.101 463.581C295.171 466.569 287.808 471 278.745 471C276.956 471 275.096 470.824 273.192 470.436Z" fill="#2F2E41"/>
<path d="M248.964 80.4139L254.67 59.2149L279.503 66.1756L278.497 89.1852L248.964 80.4139Z" fill="#FFB6B6"/>
<path d="M219.374 203.775L219.093 203.719L223.469 127.363C224.373 111.589 229.538 96.7025 238.404 84.317L249.282 69.1205L283.911 90.4041L284.044 90.4815L291.713 135.733L291.725 135.817L283.427 214.808L283.344 215.111L219.374 203.783V203.775Z" fill="#2196F3"/>
<path d="M254.893 59.8701L257.129 60.4408C257.129 60.4408 260.982 43.7789 263.517 47.2381C266.058 50.6973 272.542 51.7541 272.542 51.7541L274.771 46.3081C274.771 46.3081 286.847 45.7868 288.846 39.6856C288.846 39.6856 314.494 41.0383 307.31 25.9616C300.132 10.8848 297.827 14.1045 297.827 14.1045C297.827 14.1045 290.815 9.49693 289.241 4.88232C287.668 0.267713 272.198 -3.7551 263.078 6.00251C229.666 41.771 254.887 59.8631 254.887 59.8631L254.893 59.8701Z" fill="#3F3D56"/>
<path d="M315.507 167.567L311.121 168.451L316.141 198.948L320.527 198.065L315.507 167.567Z" fill="#3F3D56"/>
<path d="M303.387 203.31C310.24 198.097 321.615 197.23 333.837 197.181C334.945 196.956 336.009 197.773 336.206 198.999L337.416 206.347C337.62 207.573 336.881 208.749 335.773 208.968C324.895 212.533 314.52 215.041 305.323 215.097C304.215 215.323 303.151 214.505 302.954 213.279L301.744 205.931C301.54 204.705 302.279 203.529 303.387 203.31Z" fill="#3F3D56"/>
<path d="M295.973 158.263C305.966 154.332 316.112 152.226 326.424 152.134C327.532 151.909 328.595 152.726 328.793 153.952L330.003 161.3C330.207 162.526 329.468 163.702 328.36 163.921C318.946 168.902 309.157 172.375 297.91 170.05C296.801 170.276 295.738 169.458 295.54 168.232L294.33 160.884C294.126 159.658 294.865 158.482 295.973 158.263Z" fill="#3F3D56"/>
<path d="M274.968 134.761C274.968 134.761 277.637 143.426 267.606 161.758L266.504 169.444L302.865 176.426C305.616 175.468 308.915 175.024 312.431 175.285C321.558 175.954 328.678 181.062 328.341 186.691C328.003 192.32 320.328 196.343 311.208 195.673C309.215 195.526 307.31 195.166 305.565 194.638C294.33 195.962 244.053 200.894 243.971 183.323C243.881 163.547 242.69 140.862 242.69 140.862L274.968 134.761Z" fill="#FFB6B6"/>
<path d="M239.621 113.364C239.245 106.073 241.837 99.0696 246.722 94.1591C251.607 89.2486 258.154 87.0717 264.689 88.1778C271.02 89.2557 276.58 93.3348 279.936 99.3655C283.293 105.396 284.082 112.723 282.102 119.466L275.427 142.165L241.378 147.555L239.627 113.371L239.621 113.364Z" fill="#2196F3"/>
<path d="M100.497 413.867L99.3329 444.839L103.787 445.044L104.951 414.072L100.497 413.867Z" fill="#3F3D56"/>
<path d="M86.026 445.961C93.7452 442.537 105.012 444.461 116.954 447.377C118.075 447.427 118.954 448.484 118.909 449.724L118.629 457.184C118.584 458.424 117.629 459.397 116.508 459.347C105.184 460.179 94.5668 460.108 85.5801 457.931C84.4592 457.882 83.5803 456.825 83.6249 455.585L83.9051 448.124C83.9497 446.884 84.905 445.912 86.026 445.961Z" fill="#3F3D56"/>
<path d="M87.7456 400.21C98.2735 398.801 108.591 399.216 118.673 401.626C119.794 401.675 120.673 402.732 120.629 403.972L120.348 411.433C120.304 412.673 119.349 413.645 118.228 413.596C108.056 416.167 97.815 417.175 87.2998 412.18C86.1788 412.13 85.2999 411.073 85.3445 409.834L85.6247 402.373C85.6693 401.133 86.6246 400.16 87.7456 400.21Z" fill="#3F3D56"/>
</g>
<defs>
<clipPath id="clip0_9_76">
<rect width="466" height="471" fill="white"/>
</clipPath>
</defs>
</svg>
