<svg width="567" height="413" viewBox="0 0 567 413" fill="none" xmlns="http://www.w3.org/2000/svg">
<g clip-path="url(#clip0_11_56)">
<path d="M434.109 408.33C426.849 400.857 422.44 389.051 423.596 377.559C424.753 366.066 431.915 355.501 441.205 353.06C450.495 350.62 461.085 357.375 463.907 368.432C465.46 347.115 467.249 324.906 476.552 306.753C484.975 290.316 499.563 278.554 515.374 276.45C531.185 274.346 547.832 282.293 557.692 297.497C567.553 312.701 569.967 334.804 563.061 352.26C557.974 365.119 548.601 374.688 538.78 382.474C507.046 407.419 468.986 417.564 431.602 411.04L434.109 408.33Z" fill="#F2F2F2"/>
<path d="M542.057 282.733C529.011 295.68 517.043 310.159 506.326 325.962C489.553 350.608 475.98 378.242 466.08 407.9C465.356 410.063 468.239 411.005 468.956 408.866C485.154 360.666 511.012 318.183 544.166 285.302C545.655 283.825 543.534 281.269 542.057 282.733Z" fill="white"/>
<path d="M182.526 406.299C192.497 396.035 198.553 379.82 196.965 364.035C195.377 348.25 185.54 333.738 172.78 330.386C160.02 327.034 145.474 336.313 141.598 351.5C139.465 322.221 137.008 291.716 124.231 266.783C112.662 244.207 92.6245 228.052 70.9084 225.162C49.1922 222.272 26.3278 233.188 12.7843 254.07C-0.759321 274.953 -4.07541 305.312 5.41016 329.287C12.3979 346.949 25.2716 360.093 38.7602 370.786C81.7932 404.901 135.176 419.129 185.97 410.022" fill="#F2F2F2"/>
<path d="M34.259 233.793C52.1775 251.574 68.6159 271.461 83.3363 293.167C98.0591 314.85 111.021 338.221 122.04 362.953C128.199 376.827 133.731 391.1 138.613 405.708C139.609 408.68 135.648 409.974 134.664 407.035C126.017 381.28 115.319 356.62 102.723 333.408C90.189 310.28 75.8428 288.688 59.8863 268.935C50.8612 257.768 41.339 247.214 31.3627 237.321C29.3179 235.293 32.231 231.781 34.259 233.793Z" fill="white"/>
<path d="M407.002 412.096H169.122V114.736C169.122 51.4701 211.369 0 263.296 0H312.828C364.756 0 407.002 51.4701 407.002 114.736V412.096Z" fill="#F2F2F2"/>
<path d="M357.471 412.096H169.122V114.736C169.07 90.4939 175.371 66.8646 187.107 47.2884C187.54 46.5699 187.971 45.8608 188.416 45.1595C194.093 36.0886 200.848 28.1001 208.46 21.4575C208.89 21.0764 209.321 20.7019 209.759 20.3274C216.128 14.9578 223.017 10.5682 230.27 7.25862C230.701 7.05973 231.14 6.86044 231.578 6.6693C238.138 3.81724 244.938 1.86359 251.852 0.844433C252.281 0.77309 252.721 0.717264 253.161 0.661436C259.899 -0.216328 266.695 -0.216328 273.433 0.661436C273.872 0.717264 274.312 0.773083 274.746 0.845196C281.659 1.86442 288.457 3.81783 295.015 6.66933C295.453 6.86048 295.892 7.05975 296.324 7.25903C303.488 10.5269 310.296 14.8509 316.597 20.1347C317.035 20.5011 317.473 20.8756 317.904 21.2501C322.171 24.9604 326.178 29.0938 329.885 33.6082C332.858 37.2293 335.629 41.0892 338.178 45.1618C338.622 45.8609 339.053 46.57 339.485 47.2872C351.222 66.8637 357.523 90.4934 357.471 114.736V412.096Z" fill="#CCCCCC"/>
<path d="M342.155 279.098C347.914 279.098 352.583 273.41 352.583 266.393C352.583 259.377 347.914 253.689 342.155 253.689C336.396 253.689 331.728 259.377 331.728 266.393C331.728 273.41 336.396 279.098 342.155 279.098Z" fill="#2196F3"/>
<path d="M387.515 403.189H379.524L375.723 365.642L387.516 365.643L387.515 403.189Z" fill="#FFB8B8"/>
<path d="M373.817 400.408H389.226V412.228H364.115C364.115 410.676 364.366 409.139 364.853 407.705C365.341 406.271 366.056 404.968 366.957 403.87C367.858 402.772 368.927 401.902 370.104 401.308C371.281 400.714 372.543 400.408 373.817 400.408Z" fill="#2F2E41"/>
<path d="M427.27 403.189H419.28L415.478 365.642L427.271 365.643L427.27 403.189Z" fill="#FFB8B8"/>
<path d="M413.572 400.408H428.981V412.228H403.87C403.87 410.676 404.121 409.139 404.609 407.705C405.096 406.271 405.811 404.968 406.712 403.87C407.613 402.772 408.682 401.902 409.859 401.308C411.036 400.714 412.298 400.408 413.572 400.408Z" fill="#2F2E41"/>
<path d="M347.433 268.91C346.858 267.878 346.476 266.706 346.313 265.474C346.151 264.243 346.212 262.984 346.492 261.784C346.772 260.585 347.265 259.475 347.935 258.533C348.606 257.59 349.438 256.839 350.372 256.33L377.533 165.124L390.898 174.01L359.886 261.17C360.483 263.14 360.466 265.308 359.838 267.263C359.211 269.219 358.016 270.825 356.481 271.779C354.946 272.734 353.177 272.968 351.509 272.44C349.842 271.911 348.391 270.655 347.433 268.91Z" fill="#FFB8B8"/>
<path d="M423.188 286.048C422.3 285.428 421.535 284.578 420.946 283.558C420.356 282.539 419.958 281.374 419.778 280.146C419.598 278.919 419.642 277.658 419.905 276.453C420.169 275.248 420.646 274.128 421.303 273.172L412.889 176.691L428.098 177.538L431.595 272.439C432.84 273.891 433.605 275.848 433.745 277.941C433.885 280.033 433.389 282.116 432.353 283.793C431.317 285.471 429.812 286.627 428.122 287.042C426.433 287.458 424.678 287.104 423.188 286.048Z" fill="#FFB8B8"/>
<path d="M398.924 148.23C407.765 148.23 414.931 139.499 414.931 128.728C414.931 117.958 407.765 109.227 398.924 109.227C390.084 109.227 382.917 117.958 382.917 128.728C382.917 139.499 390.084 148.23 398.924 148.23Z" fill="#FFB8B8"/>
<path d="M423.086 264.106H374.828L374.886 263.648C374.973 262.964 383.487 195.014 377.207 172.784C376.577 170.599 376.633 168.208 377.363 166.07C378.093 163.932 379.447 162.199 381.163 161.204C390.138 156.055 407.367 149.714 421.909 165.102C424.049 167.404 425.72 170.281 426.79 173.505C427.86 176.729 428.299 180.212 428.074 183.679L423.086 264.106Z" fill="#2196F3"/>
<path d="M384.096 205.056L362.37 199.686L372.554 170.283C373.164 167.436 374.675 164.999 376.758 163.507C378.84 162.015 381.323 161.591 383.662 162.326C386.001 163.062 388.004 164.898 389.234 167.431C390.463 169.964 390.818 172.988 390.22 175.84L384.096 205.056Z" fill="#2196F3"/>
<path d="M411.923 215.027L410.616 178.548C409.626 171.691 412.848 165.209 417.803 164.149C422.76 163.093 427.6 167.849 428.595 174.757L433.504 208.843L411.923 215.027Z" fill="#2196F3"/>
<path d="M421.481 259.738C429.246 295.768 430.093 341.577 427.998 391.546L417.57 389.958L398.67 294.675L388.243 391.546L376.512 390.752C373.007 338.323 369.595 293.313 375.208 263.708L421.481 259.738Z" fill="#2F2E41"/>
<path d="M409.471 143.8C406.485 147.676 400.939 145.595 400.55 140.301C400.52 139.89 400.522 139.476 400.557 139.065C400.758 136.72 401.87 134.591 401.603 132.115C401.543 131.499 401.355 130.911 401.056 130.409C398.676 126.526 393.09 132.145 390.845 128.631C389.467 126.476 391.086 123.083 390.029 120.674C388.635 117.495 384.504 119.063 381.913 117.322C379.031 115.385 379.203 109.997 381.1 106.72C383.414 102.723 387.471 100.591 391.478 100.283C395.485 99.976 399.464 101.296 403.204 103.072C407.454 105.089 411.668 107.878 414.284 112.431C417.464 117.968 417.77 125.412 416.18 131.886C415.212 135.824 411.91 140.635 409.471 143.8Z" fill="#2F2E41"/>
<path d="M547.436 412.607H66.2723C66.0669 412.606 65.8701 412.506 65.725 412.329C65.58 412.152 65.4985 411.912 65.4985 411.661C65.4985 411.411 65.58 411.171 65.725 410.994C65.8701 410.817 66.0669 410.717 66.2723 410.716H547.436C547.642 410.717 547.839 410.817 547.984 410.994C548.129 411.171 548.21 411.411 548.21 411.661C548.21 411.912 548.129 412.152 547.984 412.329C547.839 412.506 547.642 412.606 547.436 412.607Z" fill="#3F3D56"/>
<path d="M305.659 325.945H220.934C219.819 325.952 218.746 325.42 217.952 324.465C217.158 323.51 216.707 322.21 216.698 320.851V90.4509C216.707 89.0915 217.158 87.7917 217.952 86.8368C218.746 85.8819 219.819 85.3497 220.934 85.357H305.659C306.774 85.3497 307.847 85.8819 308.641 86.8368C309.435 87.7917 309.886 89.0915 309.895 90.4509V320.851C309.886 322.21 309.435 323.51 308.641 324.465C307.847 325.42 306.774 325.952 305.659 325.945Z" fill="white"/>
<path d="M309.895 159.907H216.698V161.495H309.895V159.907Z" fill="#CCCCCC"/>
<path d="M310.221 250.513H217.024V252.101H310.221V250.513Z" fill="#CCCCCC"/>
<path d="M247.329 85.3571H246.026V326.739H247.329V85.3571Z" fill="#CCCCCC"/>
<path d="M279.916 85.3571H278.612V326.739H279.916V85.3571Z" fill="#CCCCCC"/>
</g>
<defs>
<clipPath id="clip0_11_56">
<rect width="567" height="413" fill="white"/>
</clipPath>
</defs>
</svg>
